<svg id="icons" xmlns="http://www.w3.org/2000/svg" viewBox="0 0 40 48"><defs><style>.cls-1{fill:none;stroke:#505050;stroke-linejoin:round;stroke-width:2px;}</style></defs><title>shutterstock_626157677 [Converti]</title><path class="cls-1" d="M312,289c1.85,2.62,14,8,19,8v19c0,8.93-17.94,19-19,19h0c-1.06,0-19-10.07-19-19V297c4.84,0,17.16-5.38,19-8Z" transform="translate(-292 -288)"/><path class="cls-1" d="M322,324v-4c0-3.3-6.53-6-10-6s-10,2.7-10,6v4" transform="translate(-292 -288)"/><path class="cls-1" d="M312,311a4.86,4.86,0,0,1-5-5v-2a5,5,0,0,1,10,0v2A4.86,4.86,0,0,1,312,311Z" transform="translate(-292 -288)"/></svg>