<svg id="icons" xmlns="http://www.w3.org/2000/svg" viewBox="0 0 48 42"><defs><style>.cls-1{fill:none;stroke:#505050;stroke-miterlimit:10;stroke-width:2px;}</style></defs><title>shutterstock_673645744 [Converti]</title><path class="cls-1" d="M68,160v-2c0-1.3-2.75-3-5-3s-5,1.7-5,3v2" transform="translate(-48 -131)"/><path class="cls-1" d="M63,148a2.86,2.86,0,0,0-3,2.52v2a3,3,0,0,0,6,0v-2A2.86,2.86,0,0,0,63,148Z" transform="translate(-48 -131)"/><rect class="cls-1" x="1" y="11" width="46" height="30"/><polyline class="cls-1" points="4 9 4 6 44 6 44 9"/><polyline class="cls-1" points="7 4 7 1 41 1 41 4"/><line class="cls-1" x1="24" y1="18" x2="39" y2="18"/><line class="cls-1" x1="24" y1="23" x2="39" y2="23"/><line class="cls-1" x1="24" y1="28" x2="39" y2="28"/><line class="cls-1" x1="9" y1="33" x2="39" y2="33"/></svg>