<svg id="icons" xmlns="http://www.w3.org/2000/svg" viewBox="0 0 46 46"><defs><style>.cls-1{fill:none;stroke:#505050;stroke-linejoin:round;stroke-width:2px;}</style></defs><title>shutterstock_608109935 [Converti]</title><path class="cls-1" d="M65,328a2.38,2.38,0,0,1,2-1H81c1.11,0,7.22-6.13,8-7a53,53,0,0,0,5-8,4,4,0,0,0-4-1c-1.77.41-2.81,1.68-4,4l-4.58,2.38" transform="translate(-49 -290)"/><path class="cls-1" d="M71,321h8c4,0,4-5,0-5H73.72c-.84,0-2.4-2-3.72-2H65a7,7,0,0,0-4,2l-4,4" transform="translate(-49 -290)"/><rect class="cls-1" x="54.96" y="318.01" width="7.07" height="16.97" transform="translate(-262.74 -153) rotate(-45)"/><line class="cls-1" x1="6" y1="33" x2="8" y2="35"/><line class="cls-1" x1="15" y1="9" x2="17" y2="9"/><path class="cls-1" d="M63,293a2.8,2.8,0,0,1-3,3v6h0a3,3,0,0,1,3,3" transform="translate(-49 -290)"/><line class="cls-1" x1="33" y1="9" x2="31" y2="9"/><path class="cls-1" d="M83,293a2.8,2.8,0,0,0,3,3v6h0a3,3,0,0,0-3,3" transform="translate(-49 -290)"/><path class="cls-1" d="M73,295a4,4,0,1,0,4,4A4,4,0,0,0,73,295Z" transform="translate(-49 -290)"/><rect class="cls-1" x="7" y="1" width="34" height="16"/></svg>