<svg id="icons" xmlns="http://www.w3.org/2000/svg" viewBox="0 0 48 46"><defs><style>.cls-1{fill:none;stroke:#505050;stroke-linejoin:round;stroke-width:2px;}</style></defs><title>shutterstock_673645744 [Converti]</title><path class="cls-1" d="M147,175v-5c0-3.3-5.87-5-9-5s-9,1.7-9,5v5" transform="translate(-128 -129)"/><path class="cls-1" d="M138,162a3.83,3.83,0,0,0,4-4v-2a4,4,0,0,0-8,0v2A3.83,3.83,0,0,0,138,162Z" transform="translate(-128 -129)"/><polyline class="cls-1" points="34 16 25 24 21 18"/><line class="cls-1" x1="25" y1="7" x2="25" y2="11"/><line class="cls-1" x1="41" y1="23" x2="37" y2="23"/><line class="cls-1" x1="25" y1="39" x2="25" y2="35"/><path class="cls-1" d="M135.25,149A18,18,0,1,1,153,170a18.59,18.59,0,0,1-3-.25" transform="translate(-128 -129)"/><path class="cls-1" d="M131,152a22,22,0,1,1,22,22,22.79,22.79,0,0,1-3-.2" transform="translate(-128 -129)"/></svg>