<svg id="icons" xmlns="http://www.w3.org/2000/svg" viewBox="0 0 51.71 48.82"><defs><style>.cls-1,.cls-2{fill:none;stroke:#505050;stroke-miterlimit:10;stroke-width:2px;}.cls-2{stroke-linecap:round;}</style></defs><title>shutterstock_673645744 [Converti]</title><polyline class="cls-1" points="36.67 11.03 36.67 1 1 1 1 47.82 36.67 47.82 36.67 31.1"/><path class="cls-1" d="M201.75,219.82c-1.3-1.3-4.57-.15-7.18,2.46l-14.09,14.24c-4.58,4.59-10,12.1-8.67,13.4s8.82-4.09,13.4-8.67L199.3,227C201.91,224.4,203.06,221.13,201.75,219.82Z" transform="translate(-153 -211)"/><line class="cls-2" x1="16.38" y1="41.51" x2="18.81" y2="38.92"/><path class="cls-1" d="M194.57,222.28l6.3,6.3a2.24,2.24,0,0,1,0,3.16L193,239.62" transform="translate(-153 -211)"/><line class="cls-1" x1="26.69" y1="26.31" x2="31.42" y2="31.04"/><line class="cls-1" x1="48.75" y1="8.82" x2="51" y2="6.57"/><line class="cls-1" x1="13.26" y1="41.13" x2="6.57" y2="41.13"/><line class="cls-1" x1="13.26" y1="8.8" x2="24.41" y2="8.8"/><line class="cls-1" x1="7.69" y1="14.38" x2="29.98" y2="14.38"/><line class="cls-1" x1="7.69" y1="18.84" x2="28.87" y2="18.84"/><line class="cls-1" x1="7.69" y1="23.29" x2="24.41" y2="23.29"/><line class="cls-1" x1="7.69" y1="27.75" x2="19.95" y2="27.75"/></svg>